<svg width="95" height="133" viewBox="0 0 95 133" fill="none" xmlns="http://www.w3.org/2000/svg">
<circle cx="47.6367" cy="58.5" r="13.5" fill="#7A57E9"/>
<path fill-rule="evenodd" clip-rule="evenodd" d="M65.292 14.1513C65.7156 13.0721 67.3184 13.3756 67.3184 14.5351V14.9853C67.3184 16.3111 67.5507 17.6307 68.0039 18.8769C68.4703 20.1593 69.1658 21.3498 70.0537 22.3857C70.5491 22.9636 71.1013 23.4906 71.7022 23.958L74.0293 25.7675L74.044 25.7793L74.0586 25.792L78.0557 29.4257L78.0801 29.4482L78.1006 29.4726C80.7789 32.638 83.1521 36.0616 85.0859 39.7392C85.4922 40.5119 85.853 41.2089 86.1123 41.7304C86.2415 41.9903 86.3479 42.2119 86.4229 42.3789C86.4599 42.4614 86.4928 42.5371 86.5166 42.6005C86.5283 42.6318 86.5399 42.6672 86.5498 42.7021C86.5565 42.7256 86.5762 42.7953 86.5762 42.8769L86.5732 42.8281C86.5739 42.8312 86.5764 42.8436 86.582 42.8671C86.5922 42.9093 86.6088 42.9706 86.6318 43.0507C86.6779 43.2108 86.7456 43.4312 86.8311 43.6992C87.002 44.2347 87.2393 44.9493 87.5039 45.7324C88.033 47.2984 88.6683 49.1316 89.0918 50.3418L89.0922 50.343C89.0991 50.3623 89.1045 50.3822 89.1084 50.4023L89.7705 53.4882C89.9843 54.4853 90.7972 55.2443 91.8066 55.3886C93.7821 55.671 94.7602 57.2745 94.7578 58.8408C94.7551 60.4043 93.7766 62.0245 91.8184 62.3603C91.451 62.4233 91.1565 62.4771 90.9443 62.5205C90.838 62.5423 90.7556 62.5606 90.6982 62.5752C90.663 62.5841 90.629 62.5979 90.5971 62.6155C89.9725 62.9602 89.6586 63.6306 89.4756 64.5781C89.3823 65.0613 89.3295 65.5817 89.2754 66.122C89.2223 66.6526 89.1681 67.2072 89.0693 67.7187C89.0166 67.9921 88.9591 68.2463 88.8984 68.4511C88.8683 68.5529 88.8344 68.6533 88.7959 68.7412C88.7683 68.804 88.7232 68.8929 88.6563 68.9749C88.6511 68.9812 88.6464 68.9879 88.6426 68.9951C88.6301 69.019 88.6111 69.059 88.5869 69.1171C88.5386 69.2336 88.4778 69.3984 88.4072 69.6054C88.2664 70.0188 88.0938 70.577 87.9072 71.208C86.9469 74.4565 85.6977 77.6287 84.0225 80.5927C82.518 83.2544 80.693 85.7119 78.6895 88.0019C78.2635 88.4887 77.8792 88.9374 77.5869 89.2949C77.4409 89.4735 77.3202 89.627 77.2295 89.749C77.1325 89.8795 77.0877 89.9505 77.0762 89.9736C77.0203 90.085 76.929 90.185 76.8652 90.2509C76.7888 90.3298 76.6918 90.4199 76.583 90.5156C76.3644 90.7078 76.0707 90.9468 75.7246 91.2177C75.0303 91.7614 74.1026 92.4516 73.0899 93.1884C71.063 94.663 68.6789 96.3373 67.1025 97.4287L67.0879 97.4384L67.0732 97.4472L63.7354 99.4199C62.1614 100.35 60.5304 101.21 59.0684 102.251C57.6167 103.284 56.3894 104.458 55.6377 105.961C55.4478 106.34 54.5227 107.915 53.582 109.572C52.6219 111.264 51.6428 113.047 51.2949 113.917C51.0227 114.598 50.6072 116.279 50.1924 118.154C49.784 120.001 49.3874 121.984 49.1455 123.253L48.1327 132.369C48.0906 132.748 47.7596 133.028 47.3789 133.007C46.9982 133.028 46.6672 132.748 46.6251 132.369L45.6123 123.253C45.3704 121.984 44.9738 120.001 44.5654 118.154C44.1507 116.279 43.7351 114.598 43.4629 113.917C43.115 113.047 42.1359 111.264 41.1758 109.572C40.2351 107.915 39.3099 106.34 39.1201 105.961C38.3684 104.458 37.1412 103.284 35.6895 102.251C34.2274 101.21 32.5964 100.35 31.0225 99.4199L27.6846 97.4472L27.6699 97.4384L27.6553 97.4287C26.0789 96.3373 23.6948 94.6631 21.668 93.1884C20.6552 92.4516 19.7275 91.7614 19.0332 91.2177C18.6871 90.9467 18.3934 90.7078 18.1748 90.5156C18.066 90.4199 17.969 90.3298 17.8926 90.2509C17.8288 90.185 17.7375 90.0851 17.6816 89.9736C17.6701 89.9505 17.6254 89.8796 17.5283 89.749C17.4376 89.6269 17.3169 89.4735 17.1709 89.2949C16.8786 88.9374 16.4943 88.4888 16.0684 88.0019C14.0648 85.7119 12.2399 83.2545 10.7354 80.5927C9.0601 77.6287 7.81096 74.4565 6.85059 71.208C6.66405 70.577 6.49147 70.0188 6.35059 69.6054C6.28 69.3984 6.21925 69.2336 6.1709 69.1171C6.14672 69.0589 6.12773 69.019 6.11524 68.9951C6.11147 68.9879 6.10671 68.9812 6.10157 68.9749C6.03465 68.8928 5.98952 68.804 5.96192 68.7412C5.9234 68.6533 5.88954 68.553 5.85938 68.4511C5.79875 68.2463 5.74127 67.9921 5.68848 67.7187C5.58976 67.2072 5.53551 66.6526 5.48243 66.122C5.42836 65.5817 5.37552 65.0613 5.28223 64.5781C5.09924 63.6306 4.78544 62.9602 4.16069 62.6155C4.12881 62.5979 4.09486 62.5841 4.05957 62.5752C4.0022 62.5606 3.91994 62.5423 3.81348 62.5205C3.60133 62.477 3.3069 62.4233 2.93946 62.3603C0.981216 62.0245 0.00273423 60.4043 4.47035e-06 58.8408C-0.0024149 57.2745 0.975753 55.671 2.95118 55.3886C3.96074 55.2444 4.77346 54.4854 4.98731 53.4882L5.64942 50.4023C5.65332 50.3822 5.65872 50.3623 5.66559 50.343L5.66602 50.3418C6.08956 49.1317 6.72486 47.2984 7.25391 45.7324C7.51846 44.9493 7.75587 44.2347 7.92676 43.6992C8.01225 43.4313 8.07995 43.2108 8.12598 43.0507C8.14901 42.9706 8.16564 42.9093 8.17579 42.8671C8.18141 42.8437 8.18393 42.8313 8.18458 42.8281L8.18165 42.8769C8.18165 42.7953 8.20135 42.7256 8.20801 42.7021C8.21794 42.6672 8.22949 42.6318 8.24122 42.6005C8.26506 42.5371 8.29792 42.4614 8.33497 42.3789C8.40988 42.2119 8.51632 41.9903 8.64551 41.7304C8.90481 41.2089 9.26559 40.5119 9.67188 39.7392C11.6057 36.0616 13.9789 32.6379 16.6572 29.4726L16.6777 29.4482L16.7022 29.4257L20.6992 25.792L20.7139 25.7793L20.7285 25.7675L23.0557 23.958C23.6565 23.4907 24.2087 22.9636 24.7041 22.3857C25.592 21.3498 26.2875 20.1593 26.7539 18.8769C27.2071 17.6307 27.4394 16.3111 27.4395 14.9853V14.5351C27.4395 13.3756 29.0423 13.0721 29.4658 14.1513L34.6016 27.2461C35.302 29.0328 34.5232 31.0596 32.8066 31.9179L30.3887 33.1269C29.9178 33.3624 29.4818 33.6628 29.0938 34.0185L26.9756 35.9599C25.9273 36.9209 24.9587 37.9657 24.0801 39.0839L23.6445 39.6396C22.1923 41.488 20.9301 43.4786 19.8789 45.581L19.3164 46.706L19.2207 46.9765C17.8668 50.8127 17.1758 54.8518 17.1758 58.9199V59.2949C17.1758 61.8662 17.479 64.4293 18.0791 66.9296L18.3994 68.2685C19.0106 70.8146 20.0302 73.2454 21.418 75.4658C22.3912 77.0229 23.5385 78.4652 24.8369 79.7636L25.3477 80.2734C27.0356 81.9613 28.9153 83.4462 30.9482 84.6972L35.5938 87.5566C36.6512 88.2073 37.8315 88.6339 39.0606 88.8095C42.1752 89.2546 52.5826 89.2546 55.6973 88.8095C56.9263 88.6339 58.1067 88.2072 59.1641 87.5566L63.8096 84.6972C65.8425 83.4462 67.7223 81.9612 69.4102 80.2734L69.9209 79.7636C71.2193 78.4652 72.3666 77.0229 73.3399 75.4658C74.7276 73.2454 75.7473 70.8146 76.3584 68.2685L76.6787 66.9296C77.2788 64.4293 77.582 61.8662 77.582 59.2949V58.9199C77.582 54.8518 76.891 50.8127 75.5371 46.9765L75.4414 46.706L74.8789 45.581C73.8277 43.4785 72.5656 41.488 71.1133 39.6396L70.6777 39.0839C69.7991 37.9657 68.8306 36.9209 67.7822 35.9599L65.6641 34.0185C65.276 33.6628 64.84 33.3624 64.3691 33.1269L61.9512 31.9179C60.2346 31.0596 59.4559 29.0328 60.1563 27.2461L65.292 14.1513Z" fill="white"/>
<path d="M39.1764 20.958C38.8434 19.9577 40.6549 15.2234 42.825 10.1934C44.5384 6.2219 50.1032 6.35742 51.7551 10.3549L55.3671 19.0955C55.8609 20.2905 55.8726 21.6302 55.3998 22.8336L52.1997 30.978C50.5292 35.2297 44.5056 35.1973 42.89 30.9244C41.0791 26.1347 39.4817 21.8753 39.1764 20.958Z" fill="white"/>
</svg>
