<svg width="464" height="148" viewBox="0 0 464 148" fill="none" xmlns="http://www.w3.org/2000/svg">
<path d="M36.4515 58.4398C36.6728 57.8076 36.91 57.0351 37.1622 56.0932C38.1529 52.3929 41.9957 35.3714 45.162 21.2153C46.3076 16.0931 53.5752 15.9515 54.9046 21.0291C58.8016 35.9136 63.5378 53.9936 64.0999 56.0932C65.0725 59.7257 65.0543 59.8529 68.4918 61.8392C71.304 63.464 90.6015 68.3116 97.53 70.0216C98.9835 70.3804 100 71.6814 100 73.1785C100 74.6603 99.0092 75.9505 97.5744 76.3211C90.4782 78.1541 70.1522 83.4568 68.4918 84.4818C66.4773 85.7255 64.0999 92.0924 64.0999 92.0924L54.9869 126.119C53.631 131.181 46.3594 131.019 45.2141 125.905C42.0787 111.903 38.2518 95.1977 37.1622 92.0924C35.6673 87.8323 33.1229 85.6121 32.0429 84.8226C31.7134 84.5817 31.3352 84.4264 30.942 84.3169L2.44405 76.3778C0.999395 75.9754 0 74.6595 0 73.1599C0 71.6622 0.996746 70.3476 2.43879 69.9433L30.7453 62.0078C32.894 61.4054 35.7143 60.546 36.4515 58.4398Z" fill="#e8e8e8"/>
<path d="M162.232 66.32C168.184 66.32 172.728 67.696 175.864 70.448C179 73.136 180.568 77.136 180.568 82.448V94.16C180.568 99.6 179.032 103.728 175.96 106.544C172.952 109.296 168.472 110.608 162.52 110.48L133.144 110V99.536H166.648C167.672 99.536 168.184 99.024 168.184 98V78.8C168.184 77.776 167.672 77.264 166.648 77.264H149.56C143.608 77.264 139.096 75.952 136.024 73.328C133.016 70.704 131.512 66.672 131.512 61.232V49.904C131.512 44.592 133.08 40.496 136.216 37.616C139.352 34.672 143.896 33.264 149.848 33.392L177.784 33.872V44.336H145.432C144.408 44.336 143.896 44.88 143.896 45.968V64.784C143.896 65.808 144.408 66.32 145.432 66.32H162.232ZM194.636 110V33.872H206.732V110H194.636ZM240.819 110.864C234.995 110.864 230.675 109.648 227.859 107.216C225.107 104.784 223.731 100.944 223.731 95.696V48.272C223.731 42.96 225.107 39.088 227.859 36.656C230.675 34.224 234.995 33.008 240.819 33.008H273.459V43.856H237.267C236.435 43.856 236.019 44.272 236.019 45.104V98.768C236.019 99.6 236.435 100.016 237.267 100.016H261.843C262.739 100.016 263.187 99.6 263.187 98.768V79.376H251.091V69.2H274.899V95.696C274.899 100.944 273.491 104.784 270.675 107.216C267.859 109.648 263.539 110.864 257.715 110.864H240.819ZM332.014 33.872H342.478V110H334.03L298.894 55.856V110H288.43V33.872H296.782L332.014 88.112V33.872ZM401.005 110L396.685 90.896H367.597L362.701 110H351.469L368.845 45.776C369.741 42.512 370.669 40.016 371.629 38.288C372.589 36.496 373.965 35.248 375.757 34.544C377.549 33.84 380.045 33.52 383.245 33.584L395.149 33.872L413.101 110H401.005ZM379.405 45.584L370.189 80.528H394.381L386.029 44.24H380.749C379.981 44.24 379.533 44.688 379.405 45.584ZM462.924 110H422.508V33.872H434.604V99.536H462.924V110Z" fill="#e8e8e8"/>
</svg>
